<svg xmlns="http://www.w3.org/2000/svg" viewBox="0 0 32 32" fill="none">
  <!-- 카페에서 쉬는 강아지 -->
  <!-- 커피잔 -->
  <path d="M6 14h14c0 8-3 12-7 12s-7-4-7-12z" fill="#8D6E63"/>
  <ellipse cx="13" cy="14" rx="7" ry="2.5" fill="#D7CCC8"/>
  <!-- 손잡이 -->
  <path d="M20 16c2.5 0 4 1.5 4 3.5s-1.5 3.5-4 3.5" stroke="#6D4C41" stroke-width="2" fill="none"/>
  <!-- 라떼아트 - 강아지 얼굴 모양 -->
  <circle cx="13" cy="14" r="3" fill="#6D4C41"/>
  <circle cx="11" cy="13.5" r=".8" fill="#D7CCC8"/>
  <circle cx="15" cy="13.5" r=".8" fill="#D7CCC8"/>
  <ellipse cx="13" cy="15" rx="1" ry=".6" fill="#D7CCC8"/>
  <!-- 귀 마크 -->
  <ellipse cx="10" cy="11.5" rx="1" ry="1.5" fill="#6D4C41"/>
  <ellipse cx="16" cy="11.5" rx="1" ry="1.5" fill="#6D4C41"/>
  
  <!-- 김 -->
  <path d="M9 8c0-2 1.5-2 1.5 0s1.5 2 1.5 0" stroke="#BDBDBD" stroke-width="1.5" stroke-linecap="round" fill="none"/>
  <path d="M14 6c0-2 1.5-2 1.5 0" stroke="#BDBDBD" stroke-width="1.5" stroke-linecap="round" fill="none"/>
  
  <!-- 하트 -->
  <path d="M26 8c-.8-.8-2-.8-2.8 0l-.7.7-.7-.7c-.8-.8-2-.8-2.8 0s-.8 2 0 2.8l3.5 3.5 3.5-3.5c.8-.8.8-2 0-2.8z" fill="#FF6B9D"/>
</svg>
