<svg xmlns="http://www.w3.org/2000/svg" viewBox="0 0 32 32" fill="none">
  <!-- 파티하는 강아지들 -->
  <!-- 파티햇 -->
  <path d="M16 2l-5 12h10z" fill="#FF6B6B"/>
  <circle cx="16" cy="2" r="1.5" fill="#FFD93D"/>
  <path d="M12 8h8" stroke="#FFD93D" stroke-width="1"/>
  <path d="M13 5h6" stroke="#4ECDC4" stroke-width="1"/>
  
  <!-- 강아지 얼굴 -->
  <circle cx="16" cy="20" r="7" fill="#FFB74D"/>
  <!-- 귀 -->
  <ellipse cx="10" cy="15" rx="3" ry="5" fill="#F59E0B"/>
  <ellipse cx="22" cy="15" rx="3" ry="5" fill="#F59E0B"/>
  <!-- 얼굴 -->
  <ellipse cx="16" cy="22" rx="3.5" ry="2.5" fill="#FFE0B2"/>
  <!-- 눈 (행복한 눈) -->
  <path d="M12 19c0-1 1.5-2 2-1" stroke="#333" stroke-width="1.5" stroke-linecap="round" fill="none"/>
  <path d="M20 19c0-1-1.5-2-2-1" stroke="#333" stroke-width="1.5" stroke-linecap="round" fill="none"/>
  <!-- 코 -->
  <ellipse cx="16" cy="22" rx="1.2" ry=".8" fill="#333"/>
  <!-- 입 (웃는 입) -->
  <path d="M14 24c1 1 3 1 4 0" stroke="#333" stroke-width="1" stroke-linecap="round" fill="none"/>
  
  <!-- 색종이 -->
  <circle cx="4" cy="8" r="1.5" fill="#FF6B6B"/>
  <circle cx="28" cy="6" r="1.5" fill="#4ECDC4"/>
  <circle cx="6" cy="26" r="1" fill="#FFD93D"/>
  <circle cx="26" cy="24" r="1" fill="#FF6B6B"/>
  <rect x="2" y="14" width="2" height="3" rx="1" fill="#4ECDC4" transform="rotate(30 2 14)"/>
  <rect x="28" y="16" width="2" height="3" rx="1" fill="#FFD93D" transform="rotate(-20 28 16)"/>
  
  <!-- 별 -->
  <path d="M5 4l.6 1.2 1.4.2-1 1 .2 1.4-1.2-.6-1.2.6.2-1.4-1-1 1.4-.2z" fill="#FFD93D"/>
</svg>
