<svg xmlns="http://www.w3.org/2000/svg" viewBox="0 0 32 32" fill="none">
  <!-- 달리는 강아지 실루엣 -->
  <ellipse cx="10" cy="28" rx="8" ry="2" fill="#E0E0E0" opacity="0.4"/>
  <!-- 강아지 몸통 -->
  <ellipse cx="14" cy="16" rx="8" ry="5" fill="#FFB74D"/>
  <!-- 강아지 머리 -->
  <circle cx="23" cy="12" r="5" fill="#FFB74D"/>
  <!-- 귀 -->
  <ellipse cx="20" cy="6" rx="2" ry="4" fill="#F59E0B" transform="rotate(-20 20 6)"/>
  <ellipse cx="27" cy="7" rx="2" ry="3.5" fill="#F59E0B" transform="rotate(20 27 7)"/>
  <!-- 눈과 코 -->
  <circle cx="25" cy="11" r="1" fill="#333"/>
  <ellipse cx="28" cy="13" rx="1.5" ry="1" fill="#333"/>
  <!-- 다리 (달리는 모션) -->
  <path d="M8 20c-1 3-2 6-1 7s3 0 3-2l1-5M12 20c0 4 0 7 1 7s2-1 2-3l-1-4" stroke="#FFB74D" stroke-width="2.5" stroke-linecap="round"/>
  <path d="M18 18c1 3 3 5 4 4s0-3-1-5M20 17c2 2 4 3 5 2s-1-3-3-4" stroke="#FFB74D" stroke-width="2.5" stroke-linecap="round"/>
  <!-- 스피드 라인 -->
  <path d="M2 12h4M1 16h5M2 20h4" stroke="#90CAF9" stroke-width="1.5" stroke-linecap="round"/>
  <!-- 꼬리 -->
  <path d="M6 14c-2-2-3-5-1-6" stroke="#FFB74D" stroke-width="2.5" stroke-linecap="round" fill="none"/>
</svg>
