<svg xmlns="http://www.w3.org/2000/svg" viewBox="0 0 32 32" fill="none">
  <!-- 강아지가 아이디어를 떠올리는 모습 -->
  <!-- 전구 -->
  <path d="M22 4c-4 0-7 3-7 7 0 2.5 1.5 4.5 3.5 5.5v2c0 .5.5 1 1 1h5c.5 0 1-.5 1-1v-2c2-1 3.5-3 3.5-5.5 0-4-3-7-7-7z" fill="#FFEB3B"/>
  <rect x="19" y="20" width="6" height="2" rx="1" fill="#FFC107"/>
  <rect x="20" y="23" width="4" height="1.5" rx=".75" fill="#9E9E9E"/>
  <!-- 반짝임 -->
  <path d="M30 8l1 1.5 1.5 0-1 1 .5 1.5-1.5-.5-1.5.5.5-1.5-1-1 1.5 0z" fill="#FFD93D"/>
  <circle cx="14" cy="6" r="1" fill="#FFD93D"/>
  
  <!-- 강아지 얼굴 -->
  <circle cx="10" cy="22" r="7" fill="#8D6E63"/>
  <!-- 귀 -->
  <ellipse cx="4" cy="18" rx="3" ry="5" fill="#6D4C41"/>
  <ellipse cx="16" cy="18" rx="3" ry="5" fill="#6D4C41"/>
  <!-- 얼굴 -->
  <ellipse cx="10" cy="24" rx="4" ry="3" fill="#D7CCC8"/>
  <!-- 눈 -->
  <circle cx="7" cy="21" r="1.5" fill="#333"/>
  <circle cx="13" cy="21" r="1.5" fill="#333"/>
  <circle cx="7.5" cy="20.5" r=".5" fill="white"/>
  <circle cx="13.5" cy="20.5" r=".5" fill="white"/>
  <!-- 코 -->
  <ellipse cx="10" cy="24" rx="1.5" ry="1" fill="#333"/>
</svg>
